<mxfile host="app.diagrams.net" modified="2023-08-10T03:17:47.699Z" agent="Mozilla/5.0 (Windows NT 10.0; Win64; x64) AppleWebKit/537.36 (KHTML, like Gecko) Chrome/115.0.0.0 Safari/537.36" etag="gNd2nVozBtgeTZIFBAlc" version="21.6.7" type="device">
  <diagram id="C5RBs43oDa-KdzZeNtuy" name="Page-1">
    <mxGraphModel dx="2575" dy="1154" grid="1" gridSize="10" guides="1" tooltips="1" connect="1" arrows="1" fold="1" page="1" pageScale="1" pageWidth="827" pageHeight="1169" math="0" shadow="0">
      <root>
        <mxCell id="WIyWlLk6GJQsqaUBKTNV-0" />
        <mxCell id="WIyWlLk6GJQsqaUBKTNV-1" parent="WIyWlLk6GJQsqaUBKTNV-0" />
        <mxCell id="4aXySpBcAqtxCPxQEij4-0" value="&lt;u&gt;SKU&lt;/u&gt;" style="ellipse;whiteSpace=wrap;html=1;" parent="WIyWlLk6GJQsqaUBKTNV-1" vertex="1">
          <mxGeometry x="20" y="80" width="80" height="60" as="geometry" />
        </mxCell>
        <mxCell id="4aXySpBcAqtxCPxQEij4-1" value="Nombre&lt;br&gt;" style="ellipse;whiteSpace=wrap;html=1;" parent="WIyWlLk6GJQsqaUBKTNV-1" vertex="1">
          <mxGeometry x="70" y="25" width="80" height="60" as="geometry" />
        </mxCell>
        <mxCell id="4aXySpBcAqtxCPxQEij4-2" value="Descripción" style="ellipse;whiteSpace=wrap;html=1;" parent="WIyWlLk6GJQsqaUBKTNV-1" vertex="1">
          <mxGeometry x="161" y="40" width="84" height="50" as="geometry" />
        </mxCell>
        <mxCell id="4aXySpBcAqtxCPxQEij4-3" value="Precios" style="ellipse;whiteSpace=wrap;html=1;" parent="WIyWlLk6GJQsqaUBKTNV-1" vertex="1">
          <mxGeometry x="60" y="140" width="80" height="60" as="geometry" />
        </mxCell>
        <mxCell id="4aXySpBcAqtxCPxQEij4-5" value="Producto&lt;br&gt;" style="rounded=0;whiteSpace=wrap;html=1;" parent="WIyWlLk6GJQsqaUBKTNV-1" vertex="1">
          <mxGeometry x="210" y="190" width="120" height="60" as="geometry" />
        </mxCell>
        <mxCell id="4aXySpBcAqtxCPxQEij4-6" value="" style="endArrow=none;html=1;rounded=0;exitX=0.75;exitY=0;exitDx=0;exitDy=0;entryX=1;entryY=1;entryDx=0;entryDy=0;" parent="WIyWlLk6GJQsqaUBKTNV-1" source="4aXySpBcAqtxCPxQEij4-5" target="4aXySpBcAqtxCPxQEij4-1" edge="1">
          <mxGeometry width="50" height="50" relative="1" as="geometry">
            <mxPoint x="485" y="210" as="sourcePoint" />
            <mxPoint x="485" y="100" as="targetPoint" />
          </mxGeometry>
        </mxCell>
        <mxCell id="4aXySpBcAqtxCPxQEij4-7" value="" style="endArrow=none;html=1;rounded=0;exitX=1.033;exitY=0.667;exitDx=0;exitDy=0;entryX=0.25;entryY=0;entryDx=0;entryDy=0;exitPerimeter=0;" parent="WIyWlLk6GJQsqaUBKTNV-1" source="4aXySpBcAqtxCPxQEij4-0" target="4aXySpBcAqtxCPxQEij4-5" edge="1">
          <mxGeometry width="50" height="50" relative="1" as="geometry">
            <mxPoint x="285" y="200" as="sourcePoint" />
            <mxPoint x="385" y="200" as="targetPoint" />
          </mxGeometry>
        </mxCell>
        <mxCell id="4aXySpBcAqtxCPxQEij4-8" value="" style="endArrow=none;html=1;rounded=0;exitX=0;exitY=0;exitDx=0;exitDy=0;" parent="WIyWlLk6GJQsqaUBKTNV-1" source="4aXySpBcAqtxCPxQEij4-5" target="4aXySpBcAqtxCPxQEij4-3" edge="1">
          <mxGeometry width="50" height="50" relative="1" as="geometry">
            <mxPoint x="405" y="270" as="sourcePoint" />
            <mxPoint x="455" y="220" as="targetPoint" />
          </mxGeometry>
        </mxCell>
        <mxCell id="4aXySpBcAqtxCPxQEij4-9" value="" style="endArrow=none;html=1;rounded=0;entryX=1;entryY=0;entryDx=0;entryDy=0;exitX=0.5;exitY=1;exitDx=0;exitDy=0;" parent="WIyWlLk6GJQsqaUBKTNV-1" source="4aXySpBcAqtxCPxQEij4-2" target="4aXySpBcAqtxCPxQEij4-5" edge="1">
          <mxGeometry width="50" height="50" relative="1" as="geometry">
            <mxPoint x="534.2893218813452" y="300" as="sourcePoint" />
            <mxPoint x="534.2893218813452" y="250" as="targetPoint" />
          </mxGeometry>
        </mxCell>
        <mxCell id="4aXySpBcAqtxCPxQEij4-10" value="Cliente&lt;br&gt;" style="rounded=0;whiteSpace=wrap;html=1;" parent="WIyWlLk6GJQsqaUBKTNV-1" vertex="1">
          <mxGeometry x="210" y="500" width="120" height="60" as="geometry" />
        </mxCell>
        <mxCell id="4aXySpBcAqtxCPxQEij4-11" value="Nombre" style="ellipse;whiteSpace=wrap;html=1;" parent="WIyWlLk6GJQsqaUBKTNV-1" vertex="1">
          <mxGeometry x="120" y="660" width="90" height="60" as="geometry" />
        </mxCell>
        <mxCell id="4aXySpBcAqtxCPxQEij4-12" value="Primer apellido&lt;br&gt;" style="ellipse;whiteSpace=wrap;html=1;" parent="WIyWlLk6GJQsqaUBKTNV-1" vertex="1">
          <mxGeometry x="20" y="520" width="100" height="60" as="geometry" />
        </mxCell>
        <mxCell id="4aXySpBcAqtxCPxQEij4-13" value="Email&lt;br&gt;" style="ellipse;whiteSpace=wrap;html=1;" parent="WIyWlLk6GJQsqaUBKTNV-1" vertex="1">
          <mxGeometry x="35" y="445.5" width="85" height="55" as="geometry" />
        </mxCell>
        <mxCell id="4aXySpBcAqtxCPxQEij4-14" value="Teléfono" style="ellipse;whiteSpace=wrap;html=1;" parent="WIyWlLk6GJQsqaUBKTNV-1" vertex="1">
          <mxGeometry x="10" y="600" width="100" height="60" as="geometry" />
        </mxCell>
        <mxCell id="4aXySpBcAqtxCPxQEij4-15" value="" style="endArrow=none;html=1;rounded=0;exitX=0;exitY=0.25;exitDx=0;exitDy=0;" parent="WIyWlLk6GJQsqaUBKTNV-1" source="4aXySpBcAqtxCPxQEij4-10" target="4aXySpBcAqtxCPxQEij4-13" edge="1">
          <mxGeometry width="50" height="50" relative="1" as="geometry">
            <mxPoint x="320" y="550" as="sourcePoint" />
            <mxPoint x="510" y="475" as="targetPoint" />
          </mxGeometry>
        </mxCell>
        <mxCell id="4aXySpBcAqtxCPxQEij4-18" value="" style="endArrow=none;html=1;rounded=0;entryX=0.25;entryY=1;entryDx=0;entryDy=0;exitX=0.667;exitY=0.056;exitDx=0;exitDy=0;exitPerimeter=0;" parent="WIyWlLk6GJQsqaUBKTNV-1" source="4aXySpBcAqtxCPxQEij4-14" target="4aXySpBcAqtxCPxQEij4-10" edge="1">
          <mxGeometry width="50" height="50" relative="1" as="geometry">
            <mxPoint x="370" y="620" as="sourcePoint" />
            <mxPoint x="420" y="570" as="targetPoint" />
          </mxGeometry>
        </mxCell>
        <mxCell id="4aXySpBcAqtxCPxQEij4-21" value="" style="endArrow=none;html=1;rounded=0;exitX=1;exitY=0;exitDx=0;exitDy=0;entryX=0;entryY=0.75;entryDx=0;entryDy=0;" parent="WIyWlLk6GJQsqaUBKTNV-1" source="4aXySpBcAqtxCPxQEij4-12" target="4aXySpBcAqtxCPxQEij4-10" edge="1">
          <mxGeometry width="50" height="50" relative="1" as="geometry">
            <mxPoint x="320" y="580" as="sourcePoint" />
            <mxPoint x="370" y="530" as="targetPoint" />
            <Array as="points" />
          </mxGeometry>
        </mxCell>
        <mxCell id="4aXySpBcAqtxCPxQEij4-22" value="" style="endArrow=none;html=1;rounded=0;exitX=0.5;exitY=0;exitDx=0;exitDy=0;" parent="WIyWlLk6GJQsqaUBKTNV-1" source="4aXySpBcAqtxCPxQEij4-11" edge="1">
          <mxGeometry width="50" height="50" relative="1" as="geometry">
            <mxPoint x="610" y="570" as="sourcePoint" />
            <mxPoint x="300" y="560" as="targetPoint" />
          </mxGeometry>
        </mxCell>
        <mxCell id="4aXySpBcAqtxCPxQEij4-23" value="" style="endArrow=none;html=1;rounded=0;entryX=0.5;entryY=1;entryDx=0;entryDy=0;exitX=0.663;exitY=-0.033;exitDx=0;exitDy=0;exitPerimeter=0;" parent="WIyWlLk6GJQsqaUBKTNV-1" source="4aXySpBcAqtxCPxQEij4-24" target="4aXySpBcAqtxCPxQEij4-10" edge="1">
          <mxGeometry width="50" height="50" relative="1" as="geometry">
            <mxPoint x="400" y="640" as="sourcePoint" />
            <mxPoint x="440" y="570" as="targetPoint" />
          </mxGeometry>
        </mxCell>
        <mxCell id="4aXySpBcAqtxCPxQEij4-24" value="&lt;u&gt;DNI&lt;/u&gt;" style="ellipse;whiteSpace=wrap;html=1;" parent="WIyWlLk6GJQsqaUBKTNV-1" vertex="1">
          <mxGeometry x="20" y="680" width="90" height="60" as="geometry" />
        </mxCell>
        <mxCell id="4aXySpBcAqtxCPxQEij4-27" value="Venta" style="rounded=0;whiteSpace=wrap;html=1;" parent="WIyWlLk6GJQsqaUBKTNV-1" vertex="1">
          <mxGeometry x="246" y="328" width="120" height="60" as="geometry" />
        </mxCell>
        <mxCell id="4aXySpBcAqtxCPxQEij4-28" value="tiene" style="rhombus;whiteSpace=wrap;html=1;" parent="WIyWlLk6GJQsqaUBKTNV-1" vertex="1">
          <mxGeometry x="380" y="240" width="80" height="80" as="geometry" />
        </mxCell>
        <mxCell id="4aXySpBcAqtxCPxQEij4-30" value="" style="endArrow=none;html=1;rounded=0;exitX=0.142;exitY=0.667;exitDx=0;exitDy=0;exitPerimeter=0;entryX=0.25;entryY=0;entryDx=0;entryDy=0;" parent="WIyWlLk6GJQsqaUBKTNV-1" source="4aXySpBcAqtxCPxQEij4-28" target="4aXySpBcAqtxCPxQEij4-27" edge="1">
          <mxGeometry width="50" height="50" relative="1" as="geometry">
            <mxPoint x="310" y="490" as="sourcePoint" />
            <mxPoint x="280" y="330" as="targetPoint" />
            <Array as="points">
              <mxPoint x="276" y="293" />
            </Array>
          </mxGeometry>
        </mxCell>
        <mxCell id="4aXySpBcAqtxCPxQEij4-31" value="" style="endArrow=none;html=1;rounded=0;exitX=0.125;exitY=0.35;exitDx=0;exitDy=0;entryX=0.583;entryY=0.989;entryDx=0;entryDy=0;entryPerimeter=0;exitPerimeter=0;" parent="WIyWlLk6GJQsqaUBKTNV-1" source="4aXySpBcAqtxCPxQEij4-28" target="4aXySpBcAqtxCPxQEij4-5" edge="1">
          <mxGeometry width="50" height="50" relative="1" as="geometry">
            <mxPoint x="230" y="330" as="sourcePoint" />
            <mxPoint x="280" y="260" as="targetPoint" />
            <Array as="points">
              <mxPoint x="280" y="270" />
            </Array>
          </mxGeometry>
        </mxCell>
        <mxCell id="4aXySpBcAqtxCPxQEij4-32" value="tiene" style="rhombus;whiteSpace=wrap;html=1;" parent="WIyWlLk6GJQsqaUBKTNV-1" vertex="1">
          <mxGeometry x="400" y="400" width="80" height="80" as="geometry" />
        </mxCell>
        <mxCell id="4aXySpBcAqtxCPxQEij4-33" value="" style="endArrow=none;html=1;rounded=0;entryX=0.25;entryY=1;entryDx=0;entryDy=0;exitX=0;exitY=0;exitDx=0;exitDy=0;" parent="WIyWlLk6GJQsqaUBKTNV-1" source="4aXySpBcAqtxCPxQEij4-32" target="4aXySpBcAqtxCPxQEij4-27" edge="1">
          <mxGeometry width="50" height="50" relative="1" as="geometry">
            <mxPoint x="410" y="410" as="sourcePoint" />
            <mxPoint x="430" y="350" as="targetPoint" />
            <Array as="points">
              <mxPoint x="276" y="420" />
            </Array>
          </mxGeometry>
        </mxCell>
        <mxCell id="4aXySpBcAqtxCPxQEij4-34" value="" style="endArrow=none;html=1;rounded=0;entryX=0.5;entryY=1;entryDx=0;entryDy=0;exitX=0.5;exitY=0;exitDx=0;exitDy=0;" parent="WIyWlLk6GJQsqaUBKTNV-1" source="4aXySpBcAqtxCPxQEij4-10" target="4aXySpBcAqtxCPxQEij4-32" edge="1">
          <mxGeometry width="50" height="50" relative="1" as="geometry">
            <mxPoint x="380" y="400" as="sourcePoint" />
            <mxPoint x="430" y="350" as="targetPoint" />
            <Array as="points">
              <mxPoint x="270" y="480" />
            </Array>
          </mxGeometry>
        </mxCell>
        <mxCell id="4aXySpBcAqtxCPxQEij4-35" value="Cantidad" style="ellipse;whiteSpace=wrap;html=1;" parent="WIyWlLk6GJQsqaUBKTNV-1" vertex="1">
          <mxGeometry x="480" y="170" width="100" height="60" as="geometry" />
        </mxCell>
        <mxCell id="4aXySpBcAqtxCPxQEij4-36" value="" style="endArrow=none;html=1;rounded=0;exitX=0.089;exitY=0.758;exitDx=0;exitDy=0;exitPerimeter=0;entryX=1;entryY=0.5;entryDx=0;entryDy=0;" parent="WIyWlLk6GJQsqaUBKTNV-1" source="4aXySpBcAqtxCPxQEij4-35" target="4aXySpBcAqtxCPxQEij4-28" edge="1">
          <mxGeometry width="50" height="50" relative="1" as="geometry">
            <mxPoint x="380" y="400" as="sourcePoint" />
            <mxPoint x="700" y="350" as="targetPoint" />
          </mxGeometry>
        </mxCell>
        <mxCell id="4aXySpBcAqtxCPxQEij4-38" value="m" style="text;html=1;align=center;verticalAlign=middle;resizable=0;points=[];autosize=1;strokeColor=none;fillColor=none;" parent="WIyWlLk6GJQsqaUBKTNV-1" vertex="1">
          <mxGeometry x="245" y="298" width="30" height="30" as="geometry" />
        </mxCell>
        <mxCell id="4aXySpBcAqtxCPxQEij4-39" value="n" style="text;html=1;align=center;verticalAlign=middle;resizable=0;points=[];autosize=1;strokeColor=none;fillColor=none;" parent="WIyWlLk6GJQsqaUBKTNV-1" vertex="1">
          <mxGeometry x="336" y="240" width="30" height="30" as="geometry" />
        </mxCell>
        <mxCell id="4aXySpBcAqtxCPxQEij4-40" value="n" style="text;html=1;align=center;verticalAlign=middle;resizable=0;points=[];autosize=1;strokeColor=none;fillColor=none;" parent="WIyWlLk6GJQsqaUBKTNV-1" vertex="1">
          <mxGeometry x="366" y="388" width="30" height="30" as="geometry" />
        </mxCell>
        <mxCell id="4aXySpBcAqtxCPxQEij4-42" value="1" style="text;html=1;align=center;verticalAlign=middle;resizable=0;points=[];autosize=1;strokeColor=none;fillColor=none;" parent="WIyWlLk6GJQsqaUBKTNV-1" vertex="1">
          <mxGeometry x="265" y="458" width="30" height="30" as="geometry" />
        </mxCell>
        <mxCell id="4aXySpBcAqtxCPxQEij4-44" value="Producto" style="swimlane;whiteSpace=wrap;html=1;" parent="WIyWlLk6GJQsqaUBKTNV-1" vertex="1">
          <mxGeometry x="280" y="700" width="200" height="150" as="geometry" />
        </mxCell>
        <mxCell id="4aXySpBcAqtxCPxQEij4-46" value="Sku varchar(50) pk&amp;nbsp;" style="text;html=1;align=center;verticalAlign=middle;resizable=0;points=[];autosize=1;strokeColor=none;fillColor=none;" parent="4aXySpBcAqtxCPxQEij4-44" vertex="1">
          <mxGeometry x="5" y="30" width="130" height="30" as="geometry" />
        </mxCell>
        <mxCell id="4aXySpBcAqtxCPxQEij4-47" value="Nombre&lt;br&gt;" style="text;html=1;align=center;verticalAlign=middle;resizable=0;points=[];autosize=1;strokeColor=none;fillColor=none;" parent="4aXySpBcAqtxCPxQEij4-44" vertex="1">
          <mxGeometry y="60" width="70" height="30" as="geometry" />
        </mxCell>
        <mxCell id="4aXySpBcAqtxCPxQEij4-48" value="Descripción" style="text;html=1;align=center;verticalAlign=middle;resizable=0;points=[];autosize=1;strokeColor=none;fillColor=none;" parent="4aXySpBcAqtxCPxQEij4-44" vertex="1">
          <mxGeometry y="90" width="90" height="30" as="geometry" />
        </mxCell>
        <mxCell id="4aXySpBcAqtxCPxQEij4-49" value="Precio" style="text;html=1;align=center;verticalAlign=middle;resizable=0;points=[];autosize=1;strokeColor=none;fillColor=none;" parent="4aXySpBcAqtxCPxQEij4-44" vertex="1">
          <mxGeometry x="5" y="120" width="60" height="30" as="geometry" />
        </mxCell>
        <mxCell id="4aXySpBcAqtxCPxQEij4-50" value="Cliente" style="swimlane;whiteSpace=wrap;html=1;" parent="WIyWlLk6GJQsqaUBKTNV-1" vertex="1">
          <mxGeometry x="270" y="880" width="200" height="245" as="geometry" />
        </mxCell>
        <mxCell id="4aXySpBcAqtxCPxQEij4-51" value="DNI (pk)" style="text;html=1;align=center;verticalAlign=middle;resizable=0;points=[];autosize=1;strokeColor=none;fillColor=none;" parent="4aXySpBcAqtxCPxQEij4-50" vertex="1">
          <mxGeometry x="35" y="30" width="70" height="30" as="geometry" />
        </mxCell>
        <mxCell id="4aXySpBcAqtxCPxQEij4-52" value="Nombre&lt;br&gt;" style="text;html=1;align=center;verticalAlign=middle;resizable=0;points=[];autosize=1;strokeColor=none;fillColor=none;" parent="4aXySpBcAqtxCPxQEij4-50" vertex="1">
          <mxGeometry y="60" width="70" height="30" as="geometry" />
        </mxCell>
        <mxCell id="4aXySpBcAqtxCPxQEij4-53" value="Primer apellido" style="text;html=1;align=center;verticalAlign=middle;resizable=0;points=[];autosize=1;strokeColor=none;fillColor=none;" parent="4aXySpBcAqtxCPxQEij4-50" vertex="1">
          <mxGeometry x="-5" y="90" width="100" height="30" as="geometry" />
        </mxCell>
        <mxCell id="4aXySpBcAqtxCPxQEij4-54" value="Teléfono" style="text;html=1;align=center;verticalAlign=middle;resizable=0;points=[];autosize=1;strokeColor=none;fillColor=none;" parent="4aXySpBcAqtxCPxQEij4-50" vertex="1">
          <mxGeometry x="-5" y="118" width="70" height="30" as="geometry" />
        </mxCell>
        <mxCell id="4aXySpBcAqtxCPxQEij4-55" value="Email" style="text;html=1;align=center;verticalAlign=middle;resizable=0;points=[];autosize=1;strokeColor=none;fillColor=none;" parent="4aXySpBcAqtxCPxQEij4-50" vertex="1">
          <mxGeometry x="5" y="140" width="50" height="30" as="geometry" />
        </mxCell>
        <mxCell id="WpT3QK_sDsCfJ0yMOfiQ-10" value="Barrio" style="text;html=1;align=center;verticalAlign=middle;resizable=0;points=[];autosize=1;strokeColor=none;fillColor=none;" vertex="1" parent="4aXySpBcAqtxCPxQEij4-50">
          <mxGeometry y="160" width="60" height="30" as="geometry" />
        </mxCell>
        <mxCell id="WpT3QK_sDsCfJ0yMOfiQ-11" value="Codigo_postal" style="text;html=1;align=center;verticalAlign=middle;resizable=0;points=[];autosize=1;strokeColor=none;fillColor=none;" vertex="1" parent="4aXySpBcAqtxCPxQEij4-50">
          <mxGeometry x="-5" y="180" width="100" height="30" as="geometry" />
        </mxCell>
        <mxCell id="WpT3QK_sDsCfJ0yMOfiQ-12" value="Dirección" style="text;html=1;align=center;verticalAlign=middle;resizable=0;points=[];autosize=1;strokeColor=none;fillColor=none;" vertex="1" parent="4aXySpBcAqtxCPxQEij4-50">
          <mxGeometry x="15" y="210" width="70" height="30" as="geometry" />
        </mxCell>
        <mxCell id="4aXySpBcAqtxCPxQEij4-56" value="Venta_producto" style="swimlane;whiteSpace=wrap;html=1;" parent="WIyWlLk6GJQsqaUBKTNV-1" vertex="1">
          <mxGeometry x="570" y="740" width="200" height="130" as="geometry" />
        </mxCell>
        <mxCell id="4aXySpBcAqtxCPxQEij4-57" value="sku_producto PK FK" style="text;html=1;align=center;verticalAlign=middle;resizable=0;points=[];autosize=1;strokeColor=none;fillColor=none;" parent="4aXySpBcAqtxCPxQEij4-56" vertex="1">
          <mxGeometry x="5" y="30" width="130" height="30" as="geometry" />
        </mxCell>
        <mxCell id="4aXySpBcAqtxCPxQEij4-58" value="id_venta PK FK" style="text;html=1;align=center;verticalAlign=middle;resizable=0;points=[];autosize=1;strokeColor=none;fillColor=none;" parent="4aXySpBcAqtxCPxQEij4-56" vertex="1">
          <mxGeometry x="10" y="60" width="110" height="30" as="geometry" />
        </mxCell>
        <mxCell id="4aXySpBcAqtxCPxQEij4-67" value="cantidad" style="text;html=1;align=center;verticalAlign=middle;resizable=0;points=[];autosize=1;strokeColor=none;fillColor=none;" parent="4aXySpBcAqtxCPxQEij4-56" vertex="1">
          <mxGeometry x="15" y="88" width="70" height="30" as="geometry" />
        </mxCell>
        <mxCell id="4aXySpBcAqtxCPxQEij4-62" value="Venta" style="swimlane;whiteSpace=wrap;html=1;" parent="WIyWlLk6GJQsqaUBKTNV-1" vertex="1">
          <mxGeometry x="570" y="975" width="200" height="100" as="geometry" />
        </mxCell>
        <mxCell id="4aXySpBcAqtxCPxQEij4-65" value="id&amp;nbsp; &amp;nbsp; PK" style="text;html=1;align=center;verticalAlign=middle;resizable=0;points=[];autosize=1;strokeColor=none;fillColor=none;" parent="4aXySpBcAqtxCPxQEij4-62" vertex="1">
          <mxGeometry x="10" y="35" width="60" height="30" as="geometry" />
        </mxCell>
        <mxCell id="4aXySpBcAqtxCPxQEij4-81" value="dni_cliente" style="text;html=1;align=center;verticalAlign=middle;resizable=0;points=[];autosize=1;strokeColor=none;fillColor=none;" parent="4aXySpBcAqtxCPxQEij4-62" vertex="1">
          <mxGeometry x="10" y="65" width="80" height="30" as="geometry" />
        </mxCell>
        <mxCell id="4aXySpBcAqtxCPxQEij4-73" value="" style="endArrow=none;html=1;rounded=0;entryX=0.5;entryY=1;entryDx=0;entryDy=0;exitX=0.5;exitY=0;exitDx=0;exitDy=0;" parent="WIyWlLk6GJQsqaUBKTNV-1" source="4aXySpBcAqtxCPxQEij4-62" target="4aXySpBcAqtxCPxQEij4-56" edge="1">
          <mxGeometry width="50" height="50" relative="1" as="geometry">
            <mxPoint x="380" y="700" as="sourcePoint" />
            <mxPoint x="430" y="650" as="targetPoint" />
          </mxGeometry>
        </mxCell>
        <mxCell id="4aXySpBcAqtxCPxQEij4-74" value="" style="endArrow=none;html=1;rounded=0;exitX=1;exitY=0.25;exitDx=0;exitDy=0;entryX=0;entryY=0.25;entryDx=0;entryDy=0;" parent="WIyWlLk6GJQsqaUBKTNV-1" source="4aXySpBcAqtxCPxQEij4-44" target="4aXySpBcAqtxCPxQEij4-56" edge="1">
          <mxGeometry width="50" height="50" relative="1" as="geometry">
            <mxPoint x="380" y="700" as="sourcePoint" />
            <mxPoint x="430" y="650" as="targetPoint" />
          </mxGeometry>
        </mxCell>
        <mxCell id="4aXySpBcAqtxCPxQEij4-75" value="1" style="text;html=1;align=center;verticalAlign=middle;resizable=0;points=[];autosize=1;strokeColor=none;fillColor=none;" parent="WIyWlLk6GJQsqaUBKTNV-1" vertex="1">
          <mxGeometry x="475" y="708" width="30" height="30" as="geometry" />
        </mxCell>
        <mxCell id="4aXySpBcAqtxCPxQEij4-76" value="n" style="text;html=1;align=center;verticalAlign=middle;resizable=0;points=[];autosize=1;strokeColor=none;fillColor=none;" parent="WIyWlLk6GJQsqaUBKTNV-1" vertex="1">
          <mxGeometry x="545" y="748" width="30" height="30" as="geometry" />
        </mxCell>
        <mxCell id="4aXySpBcAqtxCPxQEij4-79" value="" style="endArrow=none;html=1;rounded=0;entryX=0;entryY=0.75;entryDx=0;entryDy=0;" parent="WIyWlLk6GJQsqaUBKTNV-1" target="4aXySpBcAqtxCPxQEij4-62" edge="1">
          <mxGeometry width="50" height="50" relative="1" as="geometry">
            <mxPoint x="470" y="1055" as="sourcePoint" />
            <mxPoint x="510" y="1010" as="targetPoint" />
          </mxGeometry>
        </mxCell>
        <mxCell id="WpT3QK_sDsCfJ0yMOfiQ-0" value="Dirección" style="ellipse;whiteSpace=wrap;html=1;" vertex="1" parent="WIyWlLk6GJQsqaUBKTNV-1">
          <mxGeometry x="30" y="360" width="80" height="60" as="geometry" />
        </mxCell>
        <mxCell id="WpT3QK_sDsCfJ0yMOfiQ-3" value="Barrio" style="ellipse;whiteSpace=wrap;html=1;" vertex="1" parent="WIyWlLk6GJQsqaUBKTNV-1">
          <mxGeometry x="70" y="310" width="90" height="40" as="geometry" />
        </mxCell>
        <mxCell id="WpT3QK_sDsCfJ0yMOfiQ-6" value="" style="endArrow=none;html=1;rounded=0;exitX=1;exitY=0.5;exitDx=0;exitDy=0;entryX=0.367;entryY=-0.083;entryDx=0;entryDy=0;entryPerimeter=0;" edge="1" parent="WIyWlLk6GJQsqaUBKTNV-1" source="WpT3QK_sDsCfJ0yMOfiQ-3" target="4aXySpBcAqtxCPxQEij4-10">
          <mxGeometry width="50" height="50" relative="1" as="geometry">
            <mxPoint x="160" y="390" as="sourcePoint" />
            <mxPoint x="210" y="340" as="targetPoint" />
          </mxGeometry>
        </mxCell>
        <mxCell id="WpT3QK_sDsCfJ0yMOfiQ-7" value="" style="endArrow=none;html=1;rounded=0;exitX=0.988;exitY=0.617;exitDx=0;exitDy=0;exitPerimeter=0;entryX=0;entryY=0;entryDx=0;entryDy=0;" edge="1" parent="WIyWlLk6GJQsqaUBKTNV-1" source="WpT3QK_sDsCfJ0yMOfiQ-0" target="4aXySpBcAqtxCPxQEij4-10">
          <mxGeometry width="50" height="50" relative="1" as="geometry">
            <mxPoint x="140" y="460" as="sourcePoint" />
            <mxPoint x="190" y="410" as="targetPoint" />
          </mxGeometry>
        </mxCell>
        <mxCell id="WpT3QK_sDsCfJ0yMOfiQ-8" value="Codigo_postal" style="ellipse;whiteSpace=wrap;html=1;" vertex="1" parent="WIyWlLk6GJQsqaUBKTNV-1">
          <mxGeometry x="236" y="610" width="100" height="60" as="geometry" />
        </mxCell>
        <mxCell id="WpT3QK_sDsCfJ0yMOfiQ-9" value="" style="endArrow=none;html=1;rounded=0;exitX=0.5;exitY=0;exitDx=0;exitDy=0;entryX=1;entryY=1;entryDx=0;entryDy=0;" edge="1" parent="WIyWlLk6GJQsqaUBKTNV-1" source="WpT3QK_sDsCfJ0yMOfiQ-8" target="4aXySpBcAqtxCPxQEij4-10">
          <mxGeometry width="50" height="50" relative="1" as="geometry">
            <mxPoint x="330" y="640" as="sourcePoint" />
            <mxPoint x="380" y="590" as="targetPoint" />
          </mxGeometry>
        </mxCell>
      </root>
    </mxGraphModel>
  </diagram>
</mxfile>
